<svg width="223" height="276" viewBox="0 0 223 276" fill="none" xmlns="http://www.w3.org/2000/svg">
<path d="M0 137L84.8528 52.1472L169.706 137L84.8528 221.853L0 137Z" fill="url(#paint0_linear_12_52)"/>
<path fill-rule="evenodd" clip-rule="evenodd" d="M223 138C223 214.215 161.215 276 85 276H77.5V214.5L0 137L84.8528 52.1472L169.706 137L92.5 214.206V231.705C140.908 227.884 179 187.39 179 138C179 86.0852 136.915 44 85 44V29C145.199 29 194 77.801 194 138C194 195.678 149.201 242.893 92.5 246.746V260.775C156.938 256.899 208 203.413 208 138C208 70.069 152.931 15 85 15V0C161.215 0 223 61.7847 223 138ZM57.7429 171V102.636H70.1272V134.048H70.9617L97.6328 102.636H112.754L86.3168 133.313L112.988 171H98.1002L77.7046 141.692L70.1272 150.638V171H57.7429ZM21.2132 137L84.8528 73.3604L148.492 137L84.8528 200.64L21.2132 137Z" fill="#3C3C3C"/>
<defs>
<linearGradient id="paint0_linear_12_52" x1="47.5" y1="64.5" x2="49.5" y2="226.5" gradientUnits="userSpaceOnUse">
<stop offset="0.4" stop-color="#E4F7FF" stop-opacity="0.9"/>
<stop offset="0.9" stop-color="#C97708" stop-opacity="0.4"/>
</linearGradient>
</defs>
</svg>
