<svg width="200" height="200" viewBox="0 0 200 200" fill="none" xmlns="http://www.w3.org/2000/svg">
<path d="M19 99.1687L80.4876 37.6812L141.975 99.1687L80.4876 160.656L19 99.1687Z" fill="url(#paint0_linear_34_56)"/>
<path fill-rule="evenodd" clip-rule="evenodd" d="M180.594 100C180.594 155.228 135.823 199.999 80.5953 200H80.5942L75.1594 200V155.435L19 99.2754L80.4875 37.7878L141.975 99.2754L86.0289 155.222V167.902C121.107 165.133 148.71 135.79 148.71 100C148.71 62.3806 118.214 31.8841 80.5942 31.8841V21.0145C124.217 21.0145 159.58 56.3775 159.58 100C159.58 141.796 127.116 176.009 86.0289 178.801V188.967C132.723 186.159 169.725 147.4 169.725 100C169.725 50.7746 129.82 10.8696 80.5942 10.8696V0C135.823 0 180.594 44.7715 180.594 100ZM60.8428 123.913V74.3742H69.8168V97.1359H70.4216L89.7485 74.3742H100.706L81.5485 96.6038L100.875 123.913H90.0871L75.3077 102.675L69.8168 109.158V123.913H60.8428ZM34.3719 99.2754L80.4875 53.1597L126.603 99.2754L80.4875 145.391L34.3719 99.2754Z" fill="#3C3C3C"/>
<defs>
<linearGradient id="paint0_linear_34_56" x1="53.4203" y1="46.6325" x2="54.8696" y2="164.024" gradientUnits="userSpaceOnUse">
<stop offset="0.4" stop-color="#E4F7FF" stop-opacity="0.9"/>
<stop offset="0.9" stop-color="#C97708" stop-opacity="0.4"/>
</linearGradient>
</defs>
</svg>
